<svg xmlns="http://www.w3.org/2000/svg" xmlns:xlink="http://www.w3.org/1999/xlink" width="100" zoomAndPan="magnify" viewBox="0 0 375 184.499994" height="100" preserveAspectRatio="xMidYMid meet" version="1.0"><defs><g/><clipPath id="44a850f9a9"><path d="M 231.160156 87.964844 L 252.851562 87.964844 L 252.851562 109.65625 L 231.160156 109.65625 Z M 231.160156 87.964844 " clip-rule="nonzero"/></clipPath><clipPath id="583b3cc160"><path d="M 101.742188 35.589844 L 123.433594 35.589844 L 123.433594 57.28125 L 101.742188 57.28125 Z M 101.742188 35.589844 " clip-rule="nonzero"/></clipPath></defs><g clip-path="url(#44a850f9a9)"><path fill="#a9cbda" d="M 252.683594 98.726562 C 244.046875 99.902344 243.09375 100.851562 241.921875 109.488281 C 240.746094 100.851562 239.792969 99.902344 231.160156 98.726562 C 239.792969 97.550781 240.746094 96.601562 241.921875 87.964844 C 243.09375 96.601562 244.046875 97.550781 252.683594 98.726562 " fill-opacity="1" fill-rule="nonzero"/></g><g clip-path="url(#583b3cc160)"><path fill="#a9cbda" d="M 123.265625 46.351562 C 114.628906 47.527344 113.675781 48.480469 112.503906 57.113281 C 111.328125 48.480469 110.375 47.527344 101.742188 46.351562 C 110.375 45.179688 111.328125 44.226562 112.503906 35.589844 C 113.675781 44.226562 114.628906 45.179688 123.265625 46.351562 " fill-opacity="1" fill-rule="nonzero"/></g><g fill="#6cace3" fill-opacity="0.4"><g transform="translate(5.199113, 141.374345)"><g><path d="M 1.25 -102.78125 L 1.25 -128.484375 L 91.578125 -128.484375 L 91.578125 -102.78125 L 61.046875 -102.78125 L 61.046875 0 L 31.765625 0 L 31.765625 -102.78125 Z M 1.25 -102.78125 "/></g></g></g><g fill="#6cace3" fill-opacity="0.4"><g transform="translate(97.994281, 141.374345)"><g><path d="M 90.171875 -36.125 L 32.234375 -36.125 C 32.234375 -30.519531 34.050781 -26.367188 37.6875 -23.671875 C 41.320312 -20.972656 45.269531 -19.625 49.53125 -19.625 C 53.988281 -19.625 57.515625 -20.21875 60.109375 -21.40625 C 62.703125 -22.601562 65.660156 -24.96875 68.984375 -28.5 L 88.921875 -18.53125 C 80.617188 -4.613281 66.8125 2.34375 47.5 2.34375 C 35.457031 2.34375 25.125 -1.78125 16.5 -10.03125 C 7.882812 -18.289062 3.578125 -28.234375 3.578125 -39.859375 C 3.578125 -51.492188 7.882812 -61.460938 16.5 -69.765625 C 25.125 -78.078125 35.457031 -82.234375 47.5 -82.234375 C 60.164062 -82.234375 70.46875 -78.570312 78.40625 -71.25 C 86.351562 -63.925781 90.328125 -53.46875 90.328125 -39.875 C 90.328125 -38 90.273438 -36.75 90.171875 -36.125 Z M 33.015625 -51.390625 L 63.390625 -51.390625 C 62.765625 -55.546875 61.125 -58.738281 58.46875 -60.96875 C 55.820312 -63.195312 52.425781 -64.3125 48.28125 -64.3125 C 43.707031 -64.3125 40.070312 -63.117188 37.375 -60.734375 C 34.675781 -58.347656 33.222656 -55.234375 33.015625 -51.390625 Z M 33.015625 -51.390625 "/></g></g></g><g fill="#6cace3" fill-opacity="0.4"><g transform="translate(191.879335, 141.374345)"><g><path d="M 51.859375 -59.640625 C 46.671875 -59.640625 42.207031 -57.71875 38.46875 -53.875 C 34.726562 -50.039062 32.859375 -45.425781 32.859375 -40.03125 C 32.859375 -34.519531 34.726562 -29.84375 38.46875 -26 C 42.207031 -22.164062 46.671875 -20.25 51.859375 -20.25 C 54.347656 -20.25 56.707031 -20.554688 58.9375 -21.171875 C 61.175781 -21.796875 62.8125 -22.421875 63.84375 -23.046875 L 65.25 -23.984375 L 74.59375 -4.828125 C 73.863281 -4.304688 72.847656 -3.65625 71.546875 -2.875 C 70.253906 -2.101562 67.296875 -1.039062 62.671875 0.3125 C 58.054688 1.664062 53.101562 2.34375 47.8125 2.34375 C 36.082031 2.34375 25.773438 -1.78125 16.890625 -10.03125 C 8.015625 -18.289062 3.578125 -28.1875 3.578125 -39.71875 C 3.578125 -51.34375 8.015625 -61.332031 16.890625 -69.6875 C 25.773438 -78.050781 36.082031 -82.234375 47.8125 -82.234375 C 53.101562 -82.234375 57.976562 -81.609375 62.4375 -80.359375 C 66.90625 -79.109375 70.078125 -77.863281 71.953125 -76.625 L 74.59375 -74.75 L 65.25 -55.90625 C 61.820312 -58.394531 57.359375 -59.640625 51.859375 -59.640625 Z M 51.859375 -59.640625 "/></g></g></g><g fill="#6cace3" fill-opacity="0.4"><g transform="translate(268.326383, 141.374345)"><g><path d="M 9.34375 0 L 9.34375 -133.9375 L 36.90625 -133.9375 L 36.90625 -71.484375 L 37.21875 -71.484375 C 44.382812 -78.648438 52.015625 -82.234375 60.109375 -82.234375 C 64.054688 -82.234375 67.976562 -81.710938 71.875 -80.671875 C 75.769531 -79.628906 79.503906 -78.019531 83.078125 -75.84375 C 86.660156 -73.664062 89.566406 -70.578125 91.796875 -66.578125 C 94.035156 -62.578125 95.15625 -57.929688 95.15625 -52.640625 L 95.15625 0 L 67.59375 0 L 67.59375 -45.15625 C 67.59375 -49.3125 66.265625 -52.945312 63.609375 -56.0625 C 60.960938 -59.175781 57.515625 -60.734375 53.265625 -60.734375 C 49.109375 -60.734375 45.34375 -59.125 41.96875 -55.90625 C 38.59375 -52.6875 36.90625 -49.101562 36.90625 -45.15625 L 36.90625 0 Z M 9.34375 0 "/></g></g></g><g fill="#6cace3" fill-opacity="1"><g transform="translate(5.199113, 141.374345)"><g><path d="M 1.25 -102.78125 L 1.25 -128.484375 L 91.578125 -128.484375 L 91.578125 -102.78125 L 61.046875 -102.78125 L 61.046875 0 L 31.765625 0 L 31.765625 -102.78125 Z M 1.25 -102.78125 "/></g></g></g><g fill="#6cace3" fill-opacity="1"><g transform="translate(97.994281, 141.374345)"><g><path d="M 90.171875 -36.125 L 32.234375 -36.125 C 32.234375 -30.519531 34.050781 -26.367188 37.6875 -23.671875 C 41.320312 -20.972656 45.269531 -19.625 49.53125 -19.625 C 53.988281 -19.625 57.515625 -20.21875 60.109375 -21.40625 C 62.703125 -22.601562 65.660156 -24.96875 68.984375 -28.5 L 88.921875 -18.53125 C 80.617188 -4.613281 66.8125 2.34375 47.5 2.34375 C 35.457031 2.34375 25.125 -1.78125 16.5 -10.03125 C 7.882812 -18.289062 3.578125 -28.234375 3.578125 -39.859375 C 3.578125 -51.492188 7.882812 -61.460938 16.5 -69.765625 C 25.125 -78.078125 35.457031 -82.234375 47.5 -82.234375 C 60.164062 -82.234375 70.46875 -78.570312 78.40625 -71.25 C 86.351562 -63.925781 90.328125 -53.46875 90.328125 -39.875 C 90.328125 -38 90.273438 -36.75 90.171875 -36.125 Z M 33.015625 -51.390625 L 63.390625 -51.390625 C 62.765625 -55.546875 61.125 -58.738281 58.46875 -60.96875 C 55.820312 -63.195312 52.425781 -64.3125 48.28125 -64.3125 C 43.707031 -64.3125 40.070312 -63.117188 37.375 -60.734375 C 34.675781 -58.347656 33.222656 -55.234375 33.015625 -51.390625 Z M 33.015625 -51.390625 "/></g></g></g><g fill="#6cace3" fill-opacity="1"><g transform="translate(191.879335, 141.374345)"><g><path d="M 51.859375 -59.640625 C 46.671875 -59.640625 42.207031 -57.71875 38.46875 -53.875 C 34.726562 -50.039062 32.859375 -45.425781 32.859375 -40.03125 C 32.859375 -34.519531 34.726562 -29.84375 38.46875 -26 C 42.207031 -22.164062 46.671875 -20.25 51.859375 -20.25 C 54.347656 -20.25 56.707031 -20.554688 58.9375 -21.171875 C 61.175781 -21.796875 62.8125 -22.421875 63.84375 -23.046875 L 65.25 -23.984375 L 74.59375 -4.828125 C 73.863281 -4.304688 72.847656 -3.65625 71.546875 -2.875 C 70.253906 -2.101562 67.296875 -1.039062 62.671875 0.3125 C 58.054688 1.664062 53.101562 2.34375 47.8125 2.34375 C 36.082031 2.34375 25.773438 -1.78125 16.890625 -10.03125 C 8.015625 -18.289062 3.578125 -28.1875 3.578125 -39.71875 C 3.578125 -51.34375 8.015625 -61.332031 16.890625 -69.6875 C 25.773438 -78.050781 36.082031 -82.234375 47.8125 -82.234375 C 53.101562 -82.234375 57.976562 -81.609375 62.4375 -80.359375 C 66.90625 -79.109375 70.078125 -77.863281 71.953125 -76.625 L 74.59375 -74.75 L 65.25 -55.90625 C 61.820312 -58.394531 57.359375 -59.640625 51.859375 -59.640625 Z M 51.859375 -59.640625 "/></g></g></g><g fill="#6cace3" fill-opacity="1"><g transform="translate(268.326383, 141.374345)"><g><path d="M 9.34375 0 L 9.34375 -133.9375 L 36.90625 -133.9375 L 36.90625 -71.484375 L 37.21875 -71.484375 C 44.382812 -78.648438 52.015625 -82.234375 60.109375 -82.234375 C 64.054688 -82.234375 67.976562 -81.710938 71.875 -80.671875 C 75.769531 -79.628906 79.503906 -78.019531 83.078125 -75.84375 C 86.660156 -73.664062 89.566406 -70.578125 91.796875 -66.578125 C 94.035156 -62.578125 95.15625 -57.929688 95.15625 -52.640625 L 95.15625 0 L 67.59375 0 L 67.59375 -45.15625 C 67.59375 -49.3125 66.265625 -52.945312 63.609375 -56.0625 C 60.960938 -59.175781 57.515625 -60.734375 53.265625 -60.734375 C 49.109375 -60.734375 45.34375 -59.125 41.96875 -55.90625 C 38.59375 -52.6875 36.90625 -49.101562 36.90625 -45.15625 L 36.90625 0 Z M 9.34375 0 "/></g></g></g><g fill="#000000" fill-opacity="1"><g transform="translate(120.166968, 162.300878)"><g/></g></g><g fill="#000000" fill-opacity="1"><g transform="translate(127.368023, 162.300878)"><g><path d="M 1.4375 0 L 1.4375 -9.890625 L 4.796875 -9.890625 C 5.535156 -9.890625 6.179688 -9.753906 6.734375 -9.484375 C 7.285156 -9.210938 7.710938 -8.828125 8.015625 -8.328125 C 8.316406 -7.835938 8.46875 -7.253906 8.46875 -6.578125 C 8.46875 -5.898438 8.316406 -5.3125 8.015625 -4.8125 C 7.710938 -4.320312 7.285156 -3.9375 6.734375 -3.65625 C 6.179688 -3.382812 5.535156 -3.25 4.796875 -3.25 L 2.6875 -3.25 L 2.6875 0 Z M 2.6875 -4.40625 L 4.765625 -4.40625 C 6.390625 -4.40625 7.203125 -5.125 7.203125 -6.5625 C 7.203125 -7.988281 6.390625 -8.703125 4.765625 -8.703125 L 2.6875 -8.703125 Z M 2.6875 -4.40625 "/></g></g></g><g fill="#000000" fill-opacity="1"><g transform="translate(140.083794, 162.300878)"><g><path d="M 0.234375 0 L 4.3125 -9.890625 L 5.46875 -9.890625 L 9.546875 0 L 8.234375 0 L 7.296875 -2.25 L 2.46875 -2.25 L 1.5625 0 Z M 2.953125 -3.40625 L 6.828125 -3.40625 L 4.890625 -8.15625 Z M 2.953125 -3.40625 "/></g></g></g><g fill="#000000" fill-opacity="1"><g transform="translate(153.549213, 162.300878)"><g><path d="M 1.4375 0 L 1.4375 -9.890625 L 5.21875 -9.890625 C 5.90625 -9.890625 6.503906 -9.757812 7.015625 -9.5 C 7.523438 -9.25 7.921875 -8.882812 8.203125 -8.40625 C 8.484375 -7.9375 8.625 -7.375 8.625 -6.71875 C 8.625 -5.914062 8.414062 -5.25 8 -4.71875 C 7.582031 -4.195312 7.015625 -3.847656 6.296875 -3.671875 L 8.78125 0 L 7.28125 0 L 4.859375 -3.546875 L 2.6875 -3.546875 L 2.6875 0 Z M 2.6875 -4.734375 L 5.078125 -4.734375 C 5.804688 -4.734375 6.367188 -4.90625 6.765625 -5.25 C 7.160156 -5.59375 7.359375 -6.082031 7.359375 -6.71875 C 7.359375 -7.351562 7.160156 -7.84375 6.765625 -8.1875 C 6.367188 -8.53125 5.804688 -8.703125 5.078125 -8.703125 L 2.6875 -8.703125 Z M 2.6875 -4.734375 "/></g></g></g><g fill="#000000" fill-opacity="1"><g transform="translate(166.859042, 162.300878)"><g><path d="M 0.234375 0 L 4.3125 -9.890625 L 5.46875 -9.890625 L 9.546875 0 L 8.234375 0 L 7.296875 -2.25 L 2.46875 -2.25 L 1.5625 0 Z M 2.953125 -3.40625 L 6.828125 -3.40625 L 4.890625 -8.15625 Z M 2.953125 -3.40625 "/></g></g></g><g fill="#000000" fill-opacity="1"><g transform="translate(180.32446, 162.300878)"><g/></g></g><g fill="#000000" fill-opacity="1"><g transform="translate(187.509782, 162.300878)"><g><path d="M 3.828125 0 L 3.828125 -8.703125 L 0.484375 -8.703125 L 0.484375 -9.890625 L 8.40625 -9.890625 L 8.40625 -8.703125 L 5.078125 -8.703125 L 5.078125 0 Z M 3.828125 0 "/></g></g></g><g fill="#000000" fill-opacity="1"><g transform="translate(200.098252, 162.300878)"><g><path d="M 5.9375 0.1875 C 4.9375 0.1875 4.050781 -0.03125 3.28125 -0.46875 C 2.507812 -0.90625 1.90625 -1.507812 1.46875 -2.28125 C 1.03125 -3.0625 0.8125 -3.953125 0.8125 -4.953125 C 0.8125 -5.960938 1.03125 -6.847656 1.46875 -7.609375 C 1.90625 -8.378906 2.507812 -8.984375 3.28125 -9.421875 C 4.050781 -9.859375 4.9375 -10.078125 5.9375 -10.078125 C 6.945312 -10.078125 7.832031 -9.859375 8.59375 -9.421875 C 9.363281 -8.984375 9.96875 -8.378906 10.40625 -7.609375 C 10.851562 -6.847656 11.078125 -5.960938 11.078125 -4.953125 C 11.078125 -3.953125 10.851562 -3.0625 10.40625 -2.28125 C 9.96875 -1.507812 9.363281 -0.90625 8.59375 -0.46875 C 7.832031 -0.03125 6.945312 0.1875 5.9375 0.1875 Z M 2.09375 -4.953125 C 2.09375 -4.179688 2.253906 -3.503906 2.578125 -2.921875 C 2.898438 -2.335938 3.351562 -1.878906 3.9375 -1.546875 C 4.519531 -1.222656 5.1875 -1.0625 5.9375 -1.0625 C 6.695312 -1.0625 7.363281 -1.222656 7.9375 -1.546875 C 8.519531 -1.878906 8.972656 -2.335938 9.296875 -2.921875 C 9.617188 -3.503906 9.78125 -4.179688 9.78125 -4.953125 C 9.78125 -5.722656 9.617188 -6.394531 9.296875 -6.96875 C 8.972656 -7.550781 8.519531 -8.007812 7.9375 -8.34375 C 7.363281 -8.675781 6.695312 -8.84375 5.9375 -8.84375 C 5.1875 -8.84375 4.519531 -8.675781 3.9375 -8.34375 C 3.351562 -8.007812 2.898438 -7.550781 2.578125 -6.96875 C 2.253906 -6.394531 2.09375 -5.722656 2.09375 -4.953125 Z M 2.09375 -4.953125 "/></g></g></g><g fill="#000000" fill-opacity="1"><g transform="translate(215.657041, 162.300878)"><g><path d="M 1.4375 0 L 1.4375 -9.890625 L 4.859375 -9.890625 C 5.878906 -9.890625 6.769531 -9.679688 7.53125 -9.265625 C 8.289062 -8.847656 8.878906 -8.269531 9.296875 -7.53125 C 9.722656 -6.789062 9.9375 -5.929688 9.9375 -4.953125 C 9.9375 -3.984375 9.722656 -3.125 9.296875 -2.375 C 8.878906 -1.632812 8.289062 -1.050781 7.53125 -0.625 C 6.769531 -0.207031 5.878906 0 4.859375 0 Z M 2.6875 -1.1875 L 4.859375 -1.1875 C 5.617188 -1.1875 6.28125 -1.34375 6.84375 -1.65625 C 7.414062 -1.976562 7.863281 -2.421875 8.1875 -2.984375 C 8.507812 -3.546875 8.671875 -4.203125 8.671875 -4.953125 C 8.671875 -5.703125 8.503906 -6.359375 8.171875 -6.921875 C 7.847656 -7.484375 7.398438 -7.921875 6.828125 -8.234375 C 6.253906 -8.546875 5.582031 -8.703125 4.8125 -8.703125 L 2.6875 -8.703125 Z M 2.6875 -1.1875 "/></g></g></g><g fill="#000000" fill-opacity="1"><g transform="translate(230.098422, 162.300878)"><g><path d="M 5.9375 0.1875 C 4.9375 0.1875 4.050781 -0.03125 3.28125 -0.46875 C 2.507812 -0.90625 1.90625 -1.507812 1.46875 -2.28125 C 1.03125 -3.0625 0.8125 -3.953125 0.8125 -4.953125 C 0.8125 -5.960938 1.03125 -6.847656 1.46875 -7.609375 C 1.90625 -8.378906 2.507812 -8.984375 3.28125 -9.421875 C 4.050781 -9.859375 4.9375 -10.078125 5.9375 -10.078125 C 6.945312 -10.078125 7.832031 -9.859375 8.59375 -9.421875 C 9.363281 -8.984375 9.96875 -8.378906 10.40625 -7.609375 C 10.851562 -6.847656 11.078125 -5.960938 11.078125 -4.953125 C 11.078125 -3.953125 10.851562 -3.0625 10.40625 -2.28125 C 9.96875 -1.507812 9.363281 -0.90625 8.59375 -0.46875 C 7.832031 -0.03125 6.945312 0.1875 5.9375 0.1875 Z M 2.09375 -4.953125 C 2.09375 -4.179688 2.253906 -3.503906 2.578125 -2.921875 C 2.898438 -2.335938 3.351562 -1.878906 3.9375 -1.546875 C 4.519531 -1.222656 5.1875 -1.0625 5.9375 -1.0625 C 6.695312 -1.0625 7.363281 -1.222656 7.9375 -1.546875 C 8.519531 -1.878906 8.972656 -2.335938 9.296875 -2.921875 C 9.617188 -3.503906 9.78125 -4.179688 9.78125 -4.953125 C 9.78125 -5.722656 9.617188 -6.394531 9.296875 -6.96875 C 8.972656 -7.550781 8.519531 -8.007812 7.9375 -8.34375 C 7.363281 -8.675781 6.695312 -8.84375 5.9375 -8.84375 C 5.1875 -8.84375 4.519531 -8.675781 3.9375 -8.34375 C 3.351562 -8.007812 2.898438 -7.550781 2.578125 -6.96875 C 2.253906 -6.394531 2.09375 -5.722656 2.09375 -4.953125 Z M 2.09375 -4.953125 "/></g></g></g><g fill="#000000" fill-opacity="1"><g transform="translate(245.657216, 162.300878)"><g><path d="M 4.734375 0.1875 C 3.941406 0.1875 3.253906 0.0507812 2.671875 -0.21875 C 2.097656 -0.488281 1.648438 -0.863281 1.328125 -1.34375 C 1.015625 -1.832031 0.851562 -2.398438 0.84375 -3.046875 L 2.09375 -3.046875 C 2.113281 -2.410156 2.363281 -1.910156 2.84375 -1.546875 C 3.332031 -1.179688 3.960938 -1 4.734375 -1 C 5.429688 -1 5.984375 -1.132812 6.390625 -1.40625 C 6.804688 -1.6875 7.015625 -2.070312 7.015625 -2.5625 C 7.015625 -3.019531 6.816406 -3.390625 6.421875 -3.671875 C 6.023438 -3.953125 5.378906 -4.191406 4.484375 -4.390625 C 3.265625 -4.691406 2.375 -5.066406 1.8125 -5.515625 C 1.25 -5.972656 0.96875 -6.585938 0.96875 -7.359375 C 0.96875 -8.191406 1.285156 -8.851562 1.921875 -9.34375 C 2.554688 -9.832031 3.414062 -10.078125 4.5 -10.078125 C 5.613281 -10.078125 6.492188 -9.796875 7.140625 -9.234375 C 7.785156 -8.679688 8.109375 -7.925781 8.109375 -6.96875 L 6.890625 -6.96875 C 6.878906 -7.5625 6.65625 -8.03125 6.21875 -8.375 C 5.789062 -8.71875 5.21875 -8.890625 4.5 -8.890625 C 3.789062 -8.890625 3.234375 -8.75 2.828125 -8.46875 C 2.429688 -8.195312 2.234375 -7.828125 2.234375 -7.359375 C 2.234375 -6.953125 2.414062 -6.609375 2.78125 -6.328125 C 3.15625 -6.046875 3.828125 -5.789062 4.796875 -5.5625 C 6.054688 -5.25 6.953125 -4.859375 7.484375 -4.390625 C 8.023438 -3.921875 8.296875 -3.328125 8.296875 -2.609375 C 8.296875 -1.742188 7.972656 -1.0625 7.328125 -0.5625 C 6.679688 -0.0625 5.816406 0.1875 4.734375 0.1875 Z M 4.734375 0.1875 "/></g></g></g></svg>